<svg class="logo-text" xmlns="http://www.w3.org/2000/svg" viewBox="0 0 1033.1281 172.889" focusable="false" aria-hidden="true">
    <title>Life Lanes Logo</title>
    <polygon points="122.101 86.444 89.404 86.444 89.404 0 59.603 0 59.603 115.062 122.101 115.062 122.101 143.975 165.323 100.753 122.101 57.531 122.101 86.444"></polygon>
    <polygon points="29.801 0 0 0 0 172.889 93.187 172.889 122.101 143.975 29.801 143.975 29.801 0"></polygon>
    <g class="mobile-nav-active">
        <polygon points="254.073 33.837 228.821 33.837 228.821 139.052 288.793 139.052 299.164 116.957 254.073 116.957 254.073 33.837"></polygon>
        <rect x="311.3993" y="33.8375" width="25.2506" height="105.2141"></rect>
        <polygon points="419.92 55.782 430.29 33.837 359.497 33.837 359.497 139.052 384.748 139.052 384.748 99.521 420.821 99.521 420.821 78.178 384.748 78.178 384.748 55.782 419.92 55.782"></polygon>
        <polygon points="502.933 55.782 513.303 33.837 442.509 33.837 442.509 139.052 509.546 139.052 509.546 117.107 467.761 117.107 467.761 96.666 503.833 96.666 503.833 75.472 467.761 75.472 467.761 55.782 502.933 55.782"></polygon>
        <polygon points="591.31 33.837 566.059 33.837 566.059 139.052 626.031 139.052 636.401 116.957 591.31 116.957 591.31 33.837"></polygon>
        <path d="M678.893,33.8375l-38.3284,105.214h24.951l7.5151-22.8463h39.6806l7.5151,22.8463h26.9045L708.8035,33.8375Zm1.0516,61.325,12.9259-39.23,12.927,39.23Z"></path>
        <polygon points="830.444 105.082 785.652 33.837 759.349 33.837 759.349 139.052 782.045 139.052 782.045 66.755 827.588 139.052 852.989 139.052 852.989 33.837 830.444 33.837 830.444 105.082"></polygon>
        <polygon points="936.302 55.782 946.673 33.837 875.878 33.837 875.878 139.052 942.915 139.052 942.915 117.107 901.13 117.107 901.13 96.666 937.203 96.666 937.203 75.472 901.13 75.472 901.13 55.782 936.302 55.782"></polygon>
        <path d="M1029.22,92.9733a32.42,32.42,0,0,0-10.9724-10.8056,102.5963,102.5963,0,0,0-18.0362-8.4073q-8.5672-3.4527-11.8743-6.078a7.7677,7.7677,0,0,1-3.3067-6.2307,7.2162,7.2162,0,0,1,3.382-6.5057,16.3516,16.3516,0,0,1,8.9427-2.17,40.273,40.273,0,0,1,12.4,2.18,46.4949,46.4949,0,0,1,11.95,5.7868l9.92-21.0427a71.0673,71.0673,0,0,0-33.368-8.4174,56.1269,56.1269,0,0,0-20.066,3.4524,32.46,32.46,0,0,0-14.5787,10.5825q-5.4892,7.13-5.4863,17.4872,0,9.6063,4.2839,15.9863a32.433,32.433,0,0,0,10.9715,10.2069,112.7249,112.7249,0,0,0,16.91,7.5784q8.4149,3.1533,12.1,5.8553a8.64,8.64,0,0,1,3.6817,7.3532,8.32,8.32,0,0,1-3.7571,7.3341q-3.76,2.5432-9.92,2.5436a48.9274,48.9274,0,0,1-16.8348-3.457,70.1767,70.1767,0,0,1-17.2852-9.3192v25.1014a65.0785,65.0785,0,0,0,16.9846,7.2144,69.2524,69.2524,0,0,0,17.8864,2.4049q18.0361,0,29.0087-8.6306,10.971-8.6312,10.9726-24.0915Q1033.1281,99.43,1029.22,92.9733Z"></path>
    </g>
</svg>	