<svg class="mx-auto mb-1 on-the-road" xmlns="http://www.w3.org/2000/svg" viewBox="0 0 46 36.0682">
    <title>auto</title>
    <style>.fill {fill: #bd4ec4}"</style>
    <path class="fill" d="M43.5961,13.0682h.313a2.0909,2.0909,0,0,0,0-4.1818H40.7727c-.0523,0-.1014.0116-.1528.0154L37.6231,4.7066A11.2609,11.2609,0,0,0,28.4774,0H17.5226A11.2609,11.2609,0,0,0,8.3769,4.7066L5.38,8.9018c-.0514-.0038-.1-.0154-.1528-.0154H2.0909a2.0909,2.0909,0,0,0,0,4.1818h.313S0,18.39,0,19.3511V24.558a6.26,6.26,0,0,0,2.0909,4.6705v3.4926a3.347,3.347,0,0,0,3.347,3.3471H8.153A3.347,3.347,0,0,0,11.5,32.7211v-1.88h23v1.88a3.347,3.347,0,0,0,3.347,3.3471h2.7151a3.347,3.347,0,0,0,3.347-3.3471V29.2285A6.26,6.26,0,0,0,46,24.558V19.3511C46,18.39,43.5961,13.0682,43.5961,13.0682Zm-3.8548,0,.0009.0013-.0251-.0013ZM7.3182,11.5851,10.9293,6.53a8.1148,8.1148,0,0,1,6.5933-3.3936H28.4774A8.1148,8.1148,0,0,1,35.0707,6.53l3.6111,5.0551v1.4831H7.3182ZM6.2587,13.0682h.0242l-.0251.0013Zm6.321,9.2194-.3716,2.0577-6.282-1.1346a2.0909,2.0909,0,1,1,.7432-4.1152l4.2244.7629A2.0909,2.0909,0,0,1,12.58,22.2876Zm27.4942.9231-6.282,1.1346L33.42,22.2876a2.0909,2.0909,0,0,1,1.686-2.4292l4.2244-.7629a2.0909,2.0909,0,0,1,.7432,4.1152Z"></path>
</svg>
