<svg id="Group_5210" data-name="Group 5210" xmlns="http://www.w3.org/2000/svg" width="153.602" height="18.877" viewBox="0 0 153.602 18.877">
    <path id="Path_5793" data-name="Path 5793" d="M199.376,1.512A2.923,2.923,0,0,0,196.882.3H188.4L179.6,19h4.433l3.359-7.342h2.355a1.344,1.344,0,0,1,1,.554,2.375,2.375,0,0,1-.242,2.147c-1.074,2.286-1.9,4.676-1.9,4.676h4.468a10.158,10.158,0,0,1,.554-1.8c.346-.831,1.385-3.394,1.385-3.429.866-2.113-.208-2.979-.866-3.394a4.2,4.2,0,0,0,3.6-2.39c.554-1.143,1.42-3.048,1.42-3.048.866-1.766.589-2.875.208-3.463m-4.5,3.221-.762,1.628-.45.97a1.792,1.792,0,0,1-1.7,1.178h-3.082l2.32-5.091h3.359a.554.554,0,0,1,.45.242A1.147,1.147,0,0,1,194.874,4.733Z" transform="translate(-117.398 -0.195)" fill="#2396e6"></path>
    <path id="Path_5794" data-name="Path 5794" d="M63.176,1.512A2.923,2.923,0,0,0,60.682.3H52.2L43.4,19h4.433l3.359-7.342h2.355a1.344,1.344,0,0,1,1,.554,2.375,2.375,0,0,1-.242,2.147c-1.074,2.286-1.9,4.676-1.9,4.676h4.468a10.157,10.157,0,0,1,.554-1.8c.346-.831,1.385-3.394,1.385-3.429.866-2.113-.208-2.979-.866-3.394a4.2,4.2,0,0,0,3.6-2.39c.554-1.143,1.42-3.048,1.42-3.048.866-1.766.589-2.875.208-3.463M58.708,4.733l-.762,1.628-.485.97A1.835,1.835,0,0,1,55.73,8.508H52.647l2.39-5.091h3.29a.554.554,0,0,1,.45.242A1.1,1.1,0,0,1,58.708,4.733Z" transform="translate(-28.369 -0.195)" fill="#2396e6"></path>
    <path id="Path_5795" data-name="Path 5795" d="M106.083,15.17c.866-1.836,2.113-4.433,3.394-7.2L111,4.745C112.559,1.42,110.793,0,108.576,0h-5.334a5.079,5.079,0,0,0-4.883,3.256c-.554,1.178-1.455,3.117-2.528,5.334L93.58,13.334c-2.251,4.745,1.108,5.541,2.771,5.541h3.394c3.359,0,5.022-.97,6.338-3.706m-5.992.208H98.152c-.346,0-1.039-.1-.52-1.212.762-1.628,3.914-8.451,4.572-9.836.45-.935.9-1.108,1.489-1.108h2.424c.45-.035.866.242.485,1.039l-4.5,9.594C101.476,15.135,101.026,15.377,100.091,15.377Z" transform="translate(-60.678)" fill="#2396e6"></path>
    <path id="Path_5796" data-name="Path 5796" d="M153.983,0h-4.572a5.521,5.521,0,0,0-5.2,3.256c-.831,1.766-4.779,10.078-4.779,10.078-1.455,3.013-.623,5.541,3.325,5.541h3.533c2.805.035,4.191-.416,5.472-3.221l3.29-7.169h-6.684L146.917,11.6h2.32l-1.316,2.84a1.311,1.311,0,0,1-1.524.97h-2.32c-.693,0-.935-.346-.52-1.212.52-1.108,4.676-9.8,4.676-9.8.485-1,.762-1.143,1.489-1.143h2.39c.589,0,.9.277.52,1.039-.1.173-1.039,2.251-1.039,2.251l4.225.035.97-2.043C158.139,1.455,156.892.035,153.983,0Z" transform="translate(-90.707)" fill="#2396e6"></path>
    <path id="Path_5797" data-name="Path 5797" d="M329.037,18.837,337.9.1h-4.572L324.5,18.837Z" transform="translate(-212.113 -0.066)" fill="#2396e6"></path>
    <path id="Path_5798" data-name="Path 5798" d="M368.9.2,358.614,16.686,363.843.2h-4.78L354.7,18.9h6.165L373.679.2Z" transform="translate(-231.854 -0.131)" fill="#2396e6"></path>
    <path id="Path_5799" data-name="Path 5799" d="M273.021,12.426,272.64,5.5c-.035-.831.173-1.974,1.7-1.974h3.082L278.978.2h-5.23c-4.156,0-5.541,2.528-5.4,5.507.1,1.836.346,7.723.346,7.723.069,1.42-.485,2.078-1.836,2.078h-3.5L261.8,18.9h5.576C271.082,18.9,273.264,16.513,273.021,12.426Z" transform="translate(-171.129 -0.131)" fill="#2396e6"></path>
    <path id="Path_5800" data-name="Path 5800" d="M303.483,12.426,303.1,5.5c-.035-.831.173-1.974,1.7-1.974h3.082L309.44.2h-5.23c-3.429,0-5.576,1.87-5.4,5.507.1,1.836.346,7.723.346,7.723.069,1.42-.485,2.078-1.8,2.078h-3.394L292.4,18.9h5.472C301.89,18.9,303.691,15.993,303.483,12.426Z" transform="translate(-191.131 -0.131)" fill="#2396e6"></path>
    <path id="Path_5801" data-name="Path 5801" d="M233.862.2,225.1,18.9h11.083l1.628-3.394h-6.719l2.355-4.987h5.68L240.581,7.4h-5.715l1.8-3.879h5.888L244.114.2Z" transform="translate(-147.139 -0.131)" fill="#2396e6"></path>
    <path id="Path_5802" data-name="Path 5802" d="M397.362.2,388.6,18.9h11.083l1.628-3.394h-6.719l2.355-4.987h5.68L404.081,7.4h-5.715l1.8-3.879h5.888L407.614.2Z" transform="translate(-254.012 -0.131)" fill="#2396e6"></path>
    <path id="Path_5803" data-name="Path 5803" d="M4.537,19.037H0L8.728.3h8.416c1.94,0,3.74,1.524,2.251,4.745-.831,1.836-1.559,3.429-1.94,4.191-1.143,2.39-2.632,3.256-5.472,3.221H7.55ZM11.914,9.2a1.729,1.729,0,0,0,1.7-1.143c.069-.139.693-1.42,1.524-3.186.589-1.212.139-1.524-.485-1.524H11.81L9.074,9.2Z" transform="translate(0 -0.195)" fill="#2396e6"></path>
</svg>