<svg class="mx-auto mb-1 turning-points" xmlns="http://www.w3.org/2000/svg" viewBox="0 0 48.6152 32">
    <title>Turning Points</title>
    <style>.fill {fill: #08caa9}"</style>
    <path class="fill" d="M16,32A16,16,0,0,1,16,0a2.5,2.5,0,0,1,0,5,10.9843,10.9843,0,1,0,10.4531,7.5615,2.5,2.5,0,1,1,4.75-1.5586A16.0091,16.0091,0,0,1,16,32Z"></path>
    <path class="fill" d="M32.6152,32a2.5,2.5,0,0,1,0-5,10.9843,10.9843,0,1,0-10.4531-7.5615,2.5,2.5,0,0,1-4.75,1.5586A16.002,16.002,0,1,1,32.6152,32Z"></path>
</svg>
