<svg xmlns="http://www.w3.org/2000/svg" width="16.372" height="18.155" viewBox="0 0 16.372 18.155">
    <path id="user-icon" data-name="Path 10740" d="M15.548,15.454a5.434,5.434,0,0,0-4.609-3.363c-.021,0-.088-.007-.8-.012-.346,0-.638-.454-.638-.986v-.784a5.374,5.374,0,0,0,1.664-2.944.51.51,0,0,0,.3-.078,1.544,1.544,0,0,0,.583-1,1.433,1.433,0,0,0-.185-1.175,3.438,3.438,0,0,0,.269-1.347,2.806,2.806,0,0,0-2-2.846A1.663,1.663,0,0,0,9.663.857c-.052,0-.093,0-.224-.1A3.481,3.481,0,0,0,7.282,0,3.249,3.249,0,0,0,4.405,1.378,4.943,4.943,0,0,0,3.9,4.987a1.224,1.224,0,0,0-.328,1.3c.126.625.5,1.074.875,1.074h.007a5.394,5.394,0,0,0,1.666,2.951v.784c0,.542-.3.985-.66.988-.723.007-.8.013-.822.015A5.41,5.41,0,0,0,.073,15.454,1.129,1.129,0,0,0,0,15.9c0,.455.8.828,2.365,1.107a32.722,32.722,0,0,0,5.443.4,32.71,32.71,0,0,0,5.443-.4c1.569-.279,2.365-.652,2.365-1.107A1.048,1.048,0,0,0,15.548,15.454ZM4.659,1.545A2.923,2.923,0,0,1,7.283.3a3.192,3.192,0,0,1,1.97.686.6.6,0,0,0,.455.167.928.928,0,0,1,.34.049,2.491,2.491,0,0,1,1.787,2.558,3,3,0,0,1-.482,1.668c-.024.035-.046.028-.05-.013-.153-1.311-.934-2.28-1.865-2.28a1.067,1.067,0,0,0-.666.276,2.687,2.687,0,0,1-1.65.555c-.138.009-.269.013-.389.013a1.878,1.878,0,0,1-1.071-.23.58.58,0,0,0-.3-.1c-.527,0-.842.884-.981,1.829-.007.041-.021.042-.035,0A4.9,4.9,0,0,1,4.659,1.545ZM4.736,7.23a.213.213,0,0,0-.081-.147.224.224,0,0,0-.177-.031c-.2.038-.5-.292-.608-.828a1.2,1.2,0,0,1,.11-.909,5.14,5.14,0,0,0,.228.665c.021.048.084.194.219.194.066,0,.182-.035.2-.26.13-1.353.5-1.962.73-1.962a.344.344,0,0,1,.15.062,2.163,2.163,0,0,0,1.22.269c.127,0,.264-.005.41-.015a2.983,2.983,0,0,0,1.808-.612.784.784,0,0,1,.487-.218c.81,0,1.489.933,1.58,2.172.016.21.138.284.239.284a.29.29,0,0,0,.228-.131,3.027,3.027,0,0,0,.226-.336,1.387,1.387,0,0,1,.045.8,1.247,1.247,0,0,1-.442.8.187.187,0,0,1-.151.032.211.211,0,0,0-.166.017.25.25,0,0,0-.11.166c-.466,2.043-1.7,3.417-3.074,3.417S5.2,9.279,4.736,7.23Zm.727,5.151c.53-.005.96-.583.96-1.29v-.563a2.456,2.456,0,0,0,2.777,0v.564c0,.719.413,1.285.938,1.289l.316,0a2.9,2.9,0,0,1-5.285,0C5.252,12.383,5.349,12.383,5.463,12.381Zm2.348,4.732C3.155,17.113.294,16.4.294,15.9a1.075,1.075,0,0,1,.058-.329,5.014,5.014,0,0,1,4.311-3.174c.013,0,.056,0,.182-.005a3.192,3.192,0,0,0,5.929,0c.092,0,.127,0,.141,0a5.165,5.165,0,0,1,4.352,3.178.994.994,0,0,1,.058.329C15.327,16.406,12.467,17.113,7.811,17.113Z" transform="translate(0.375 0.375)" fill="#0077b3" stroke="#2d2d2d" stroke-width="0.75"></path>
</svg>